# This file uses centimeters as units for non-parametric coordinates.

mtllib Carpet.mtl
g default
v -5.112255 3.497120 2.332807
v 0.366737 3.497120 2.332807
v -5.112255 3.800204 2.332807
v 0.366737 3.800204 2.332807
v -5.112255 3.800204 -2.006011
v 0.366737 3.800204 -2.006011
v -5.112255 3.497120 -2.006011
v 0.366737 3.497120 -2.006011
v -5.180528 3.719594 -2.060077
v -5.180528 3.719594 2.386872
v 0.435010 3.719594 2.386872
v 0.435010 3.719594 -2.060077
vt 0.297899 0.328426
vt 0.604470 -0.360629
vt 0.703633 0.501325
vt 0.257217 0.501325
vt 0.848563 0.619741
vt 0.382925 0.858698
vt 0.744315 0.774842
vt 0.297899 0.774842
vt 0.423607 0.685799
vt 0.297899 0.328426
vt 0.701091 -0.124164
vt 0.744315 0.774842
vt 0.701091 0.322253
vt 0.889246 0.446842
vt 0.870024 0.685799
vt 0.297899 0.774842
vt 0.297899 0.774842
vt 0.297899 0.774842
vt 0.744315 0.328426
vt 0.744315 0.328426
vt 0.889246 0.000426
vt 0.604470 0.085788
vt 0.701091 0.322253
vt 0.297899 0.328426
vt 0.297899 0.328426
vt 0.297899 0.328426
vt -0.061700 0.432674
vt 0.848563 0.173325
vt -0.508117 0.432674
vt 0.257217 0.501325
vt 0.158054 0.085788
vt 0.297899 0.774842
vt 0.744315 0.328426
vt 0.701091 -0.124164
vt 0.297899 0.328426
vt 0.158054 -0.360629
vt -0.061700 0.879090
vt 0.829342 0.858698
vt -0.508117 0.879090
vt 0.257217 0.947742
vn 0.000000 -0.050802 0.998709
vn 0.000000 -0.050802 0.998709
vn 0.015858 0.999558 0.025151
vn -0.015858 0.999558 0.025151
vn 0.015858 0.999558 -0.025151
vn -0.015858 0.999558 -0.025151
vn 0.000000 -0.050802 -0.998709
vn 0.000000 -0.050802 -0.998709
vn 0.000000 -1.000000 0.000000
vn 0.000000 -1.000000 0.000000
vn 0.000000 -1.000000 0.000000
vn 0.000000 -1.000000 0.000000
vn 0.999910 -0.013396 0.000000
vn 0.999910 -0.013396 0.000000
vn -0.999910 -0.013397 -0.000000
vn -0.999910 -0.013396 -0.000000
vn -0.955997 -0.293377 0.000000
vn -0.955997 -0.293377 0.000000
vn 0.000000 -0.236145 0.971718
vn 0.000000 -0.236145 0.971718
vn 0.955997 -0.293377 0.000000
vn 0.955997 -0.293377 0.000000
vn 0.000000 -0.236145 -0.971718
vn 0.000000 -0.236145 -0.971718
s 1
g Ring1:Matt
usemtl Ring1:phong1SG
f 10/26/1 11/20/2 4/3/3 3/30/4
f 3/29/4 4/27/3 6/37/5 5/39/6
f 5/6/6 6/38/5 12/15/7 9/9/8
s off
f 7/31/9 8/22/10 2/2/11 1/36/12
s 1
f 11/21/13 12/14/14 6/5/5 4/28/3
f 9/16/15 10/25/16 3/4/4 5/40/6
f 7/8/17 1/1/18 10/24/16 9/17/15
f 1/35/19 2/33/20 11/19/2 10/10/1
f 2/34/21 8/23/22 12/13/14 11/11/13
f 9/18/8 12/12/7 8/7/23 7/32/24
